<?xml version="1.0" standalone="yes"?>
<svg xmlns="http://www.w3.org/2000/svg" width="500" height="382">
<path style="fill:#ffffff; stroke:none;" d="M0 0L0 382L500 382L500 0L0 0z"/>
<path style="fill:#01a1dd; stroke:none;" d="M190 36.5293C160.829 43.2726 172.857 88.0563 202 81.3195C231.228 74.563 219.097 29.8032 190 36.5293z"/>
<path style="fill:#1f295b; stroke:none;" d="M310 36.4684C280.833 42.0758 290.932 86.7759 320 81.6713C349.593 76.4745 339.756 30.7476 310 36.4684z"/>
<path style="fill:#01a1dd; stroke:none;" d="M126 114C135.068 101.394 151.887 95.0416 167 95C167.924 87.6856 168.971 80.1427 166.452 73C164.415 67.2251 160.812 62.1819 155.999 58.3904C151.773 55.0609 146.356 52.756 141 52.1736C128.104 50.7714 115.207 55.4486 108.353 67C98.6329 83.3797 105.347 110.316 126 114z"/>
<path style="fill:#1f295b; stroke:none;" d="M248 52.4676C206.679 60.263 220.986 123.27 262 115.532C303.003 107.797 288.863 44.7586 248 52.4676z"/>
<path style="fill:#01a1dd; stroke:none;" d="M367 52.5178C353.379 55.4237 344.053 66.425 342.289 80C341.804 83.7365 341.327 90.2995 343.988 93.3966C347.806 97.8398 363.114 98.0805 369 101.313C374.028 104.074 382.197 114.182 388 113.15C403.808 110.337 408.565 87.8002 405.475 75C401.42 58.2067 383.311 49.0379 367 52.5178M176 85L175 96C184.368 97.3836 192.65 101.811 199.996 107.669C203.38 110.367 206.671 116.186 211.015 117.187C215.175 118.146 222.102 114.492 226 113C221.595 103.102 215.239 96.5284 215 85L196 86.1219L176 85z"/>
<path style="fill:#1f295b; stroke:none;" d="M295 85C294.518 96.0596 288.874 104.081 283 113C287.342 114.232 295.353 118.648 299.715 117.292C304.023 115.953 307.638 110.167 311 107.301C317.85 101.463 326.958 96.7894 336 96L334 85L315.424 86.1435L295 85M158 103.464C112.819 111.45 106.544 177.687 151 192.251C158.82 194.813 167.937 195.002 176 193.535C233.363 183.101 215.148 93.3622 158 103.464M337 103.439C291.167 110.653 285.312 176.811 329 192.135C336.599 194.8 345.112 194.934 353 193.704C411 184.66 394.794 94.3419 337 103.439z"/>
<path style="fill:#01a1dd; stroke:none;" d="M97 192L97 178L98 178C98.0845 182.096 98.0223 188.132 100.317 191.686C106.361 201.045 125.76 193.359 134 193C130.196 186.358 123.456 181.751 119.454 175C112.246 162.844 110.47 148.558 114.159 135C115.668 129.453 118.99 124.669 120 119C107.238 120.621 92.3717 123.359 83.9275 134.09C76.2548 143.841 76.0191 158.118 76 170C75.994 173.747 75.0021 179.33 77.0278 182.671C80.3606 188.168 91.0795 190.981 97 192z"/>
<path style="fill:#1f295b; stroke:none;" d="M218 165C235.153 153.701 252.314 145.378 273 153.464C280.361 156.341 286.09 161.473 293 165C289.988 150.398 291.254 139.05 296 125C288.293 122.492 279.277 118.679 271 119.299C265.505 119.711 260.671 122.921 255 122.921C247.962 122.921 242.092 118.818 235 119.733C230.313 120.338 218.785 120.851 216.132 125.51C214.372 128.601 217.888 134.767 218.55 138C220.522 147.627 218.41 155.478 218 165z"/>
<path style="fill:#01a1dd; stroke:none;" d="M390 119C395.525 138.178 402.696 153.407 392.099 173C388.075 180.438 380.525 185.553 377 193C385.908 193.709 401.702 200.261 409.4 192.411C412.963 188.778 412.9 178.824 413 174L414 174L414 192C419.683 190.685 429.793 188.176 432.972 182.787C435.109 179.165 434 173.047 434 169C434 156.683 434.258 142.947 425.671 133.04C416.961 122.992 402.487 120.586 390 119M249 158.439C241.38 159.629 234.23 162.134 228 166.761C192.109 193.413 213.755 256.194 260 249.572C270.146 248.119 279.253 244.771 286.91 237.7C318.813 208.234 292.111 151.706 249 158.439z"/>
<path style="fill:#1f295b; stroke:none;" d="M110 303L110 278L111 278C111.133 284.464 111.179 298.163 115.175 303.436C117.03 305.883 121.234 306.047 124 306.6C130.822 307.966 150.342 313.755 156.258 308.972C160.809 305.292 161.267 288.006 164.27 282C174.397 261.747 194.489 250.452 216 246C208.232 229.319 198.055 219.983 198 200C186.694 199.767 177.235 204.429 166 204.429C157.766 204.429 150.821 199.76 143 199.38C127.974 198.649 108.663 205.546 97.0039 214.68C80.1324 227.897 79 249.344 79 269C79 274.366 77.1678 283.954 80.0278 288.671C84.6128 296.233 101.841 301.112 110 303M312 200C312 219.727 302.5 229.168 295 246C327.264 253.397 350.293 275.773 351 310C362.206 310 372.981 309.167 384 306.999C387.268 306.356 392.759 306.233 395.012 303.436C399.48 297.886 399.856 281.976 400 275L401 275L401 303C409.153 300.347 425.347 296.707 429.972 288.79C432.804 283.943 431 274.467 431 269C431 247.812 430.082 226.528 411 213.043C399.576 204.97 381.212 198.591 367 199.383C359.581 199.796 352.796 204.357 345 204.545C333.582 204.819 323.517 199.762 312 200z"/>
<path style="fill:#01a1dd; stroke:none;" d="M199 358L199 332L200 332L204 360C230.421 363.558 255.175 368.093 282 364.271C288.21 363.386 300.643 363.636 305.4 359.146C309.728 355.061 309.882 340.7 310 335L311 335L311 358C318.606 356.877 334.557 352.274 338.972 345.471C341.647 341.349 340 332.744 340 328C340 311.707 341.366 293.252 331.895 279C323.603 266.522 309.186 260.09 295 257.015C279.768 253.712 269.665 259.926 255 259.921C247.197 259.919 240.476 255.41 233 254.814C217.747 253.599 197.574 260.669 186 270.326C169.4 284.176 168 304.904 168 325C168 330.143 166.285 339.14 169.028 343.671C173.825 351.596 190.533 356.041 199 358z"/>
</svg>
